<svg id="Layer_1" data-name="Layer 1" xmlns="http://www.w3.org/2000/svg" width="494.59" height="190" viewBox="0 0 494.59 190"><defs><style>.cls-1,.cls-3{fill:#14bf96;}.cls-1{stroke:#00e5ae;}.cls-1,.cls-5,.cls-6,.cls-7{stroke-miterlimit:10;}.cls-2{fill:#fff;}.cls-4{fill:#0a2a66;}.cls-5,.cls-6,.cls-7{fill:none;stroke-linecap:round;}.cls-5{stroke:#37c5fd;}.cls-5,.cls-7{stroke-width:4.44px;}.cls-6{stroke:#10a7e3;stroke-width:7.22px;}.cls-7{stroke:#c3eefe;}.cls-8{fill:#37c5fd;}.cls-9{fill:#10a7e3;}.cls-10{fill:#65d0fa;}</style></defs><title>TCP close</title><rect class="cls-1" x="225.24" y="20.25" width="40.19" height="19.61" rx="4.42"/><path class="cls-2" d="M234.36,34.39V23.78h5.83v1.06h-4.45v3.61h4v1.06h-4v4.88Z"/><path class="cls-2" d="M242.39,34.39V33.33h2.33V24.84h-2.33V23.78h6v1.06H246.1v8.49h2.33v1.06Z"/><path class="cls-2" d="M251.75,34.39h-1.27V23.78h1.24l3.75,7.06.41,1.05h0l0-1.05V23.78h1.27V34.39h-1.27l-3.65-6.94-.51-1.12,0,1.1Z"/><rect class="cls-3" x="143.88" y="44.18" width="192.76" height="9.63"/><polygon class="cls-3" points="350.83 49.95 335.53 39.93 335.53 59.98 350.83 49.95"/><rect class="cls-3" x="156.58" y="103.14" width="192.76" height="9.63" transform="translate(505.92 215.91) rotate(180)"/><polygon class="cls-3" points="142.39 107 157.7 117.02 157.7 96.97 142.39 107"/><rect class="cls-1" x="209.07" y="78.99" width="72.54" height="19.61" rx="4.42"/><path class="cls-2" d="M216.85,93.13h-1.33l3.27-10.61h1.4l3.29,10.61H222l-.72-2.33h-3.73Zm1-3.39H221l-1.28-4-.3-1.08-.27,1.08Z"/><path class="cls-2" d="M231.13,93a6.08,6.08,0,0,1-2.13.45,4.14,4.14,0,0,1-2.29-.67,4.31,4.31,0,0,1-1.63-2,7.44,7.44,0,0,1-.58-3,7.21,7.21,0,0,1,.58-3,4.37,4.37,0,0,1,1.62-2,4.12,4.12,0,0,1,2.3-.67,6,6,0,0,1,2.13.44V83.9a4.27,4.27,0,0,0-2.18-.64,2.26,2.26,0,0,0-1.5.56,3.82,3.82,0,0,0-1.1,1.64,6.51,6.51,0,0,0-.42,2.36,6.43,6.43,0,0,0,.43,2.39,3.93,3.93,0,0,0,1.1,1.63,2.27,2.27,0,0,0,1.49.55,4.3,4.3,0,0,0,2.18-.64Z"/><path class="cls-2" d="M233.17,93.13V82.52h1.38v5.2l3.94-5.2H240l-3.8,5,4.34,5.58h-1.73l-4.21-5.41v5.41Z"/><path class="cls-2" d="M250.45,93.13V82.52h5.83v1.06h-4.45v3.61h4v1.06h-4v4.88Z"/><path class="cls-2" d="M258.48,93.13V92.07h2.33V83.58h-2.33V82.52h6v1.06h-2.33v8.49h2.33v1.06Z"/><path class="cls-2" d="M267.84,93.13h-1.28V82.52h1.25l3.74,7.06.41,1h0l0-1V82.52h1.28V93.13H272l-3.64-6.94-.51-1.12,0,1.1Z"/><rect class="cls-1" x="225.24" y="142.12" width="40.19" height="19.61" rx="4.42"/><path class="cls-2" d="M234.36,156.26H233l3.27-10.61h1.4L241,156.26h-1.45l-.73-2.34h-3.73Zm1-3.39h3.1l-1.28-4-.3-1.08-.27,1.08Z"/><path class="cls-2" d="M248.65,156.13a6.08,6.08,0,0,1-2.13.45,4.12,4.12,0,0,1-2.29-.67,4.31,4.31,0,0,1-1.63-2,7.27,7.27,0,0,1-.58-3,7.37,7.37,0,0,1,.57-3,4.5,4.5,0,0,1,1.62-2,4.18,4.18,0,0,1,2.31-.67,6,6,0,0,1,2.13.44V147a4.37,4.37,0,0,0-2.19-.64,2.31,2.31,0,0,0-1.5.57,3.91,3.91,0,0,0-1.1,1.64,6.68,6.68,0,0,0-.41,2.36,6.43,6.43,0,0,0,.43,2.39A3.83,3.83,0,0,0,245,155a2.27,2.27,0,0,0,1.48.55,4.33,4.33,0,0,0,2.19-.64Z"/><path class="cls-2" d="M250.69,156.26V145.65h1.38v5.2l3.93-5.2h1.47l-3.8,5,4.33,5.58h-1.72l-4.21-5.41v5.41Z"/><rect class="cls-3" x="145.88" y="165.87" width="192.76" height="9.63"/><polygon class="cls-3" points="352.83 171.65 337.53 161.62 337.53 181.67 352.83 171.65"/><rect class="cls-4" y="33.92" width="136.01" height="136.01" rx="2.79"/><rect class="cls-2" x="5.84" y="39.76" width="124.32" height="76.5"/><line class="cls-5" x1="39.66" y1="58.2" x2="55.25" y2="58.2"/><line class="cls-6" x1="29.51" y1="58.2" x2="29.51" y2="58.2"/><line class="cls-5" x1="39.66" y1="74.79" x2="55.25" y2="74.79"/><line class="cls-6" x1="29.51" y1="74.79" x2="29.51" y2="74.79"/><line class="cls-5" x1="39.66" y1="91.39" x2="55.25" y2="91.39"/><line class="cls-6" x1="29.51" y1="91.39" x2="29.51" y2="91.39"/><line class="cls-7" x1="64.58" y1="58.2" x2="108.36" y2="58.2"/><line class="cls-7" x1="64.58" y1="66.5" x2="98.76" y2="66.5"/><line class="cls-7" x1="64.58" y1="83.09" x2="98.76" y2="83.09"/><line class="cls-7" x1="64.58" y1="99.68" x2="98.76" y2="99.68"/><line class="cls-7" x1="64.58" y1="74.79" x2="108.36" y2="74.79"/><line class="cls-7" x1="64.58" y1="91.39" x2="108.36" y2="91.39"/><path class="cls-8" d="M0,116.27H136a0,0,0,0,1,0,0v59.22a4,4,0,0,1-4,4H4a4,4,0,0,1-4-4V116.27A0,0,0,0,1,0,116.27Z"/><rect class="cls-9" x="5.84" y="123.17" width="9.03" height="9.03" rx="1.11"/><rect class="cls-9" x="17.37" y="123.17" width="9.03" height="9.03" rx="1.11"/><rect class="cls-9" x="28.9" y="123.17" width="9.03" height="9.03" rx="1.11"/><rect class="cls-9" x="40.43" y="123.17" width="9.03" height="9.03" rx="1.11"/><rect class="cls-9" x="51.96" y="123.17" width="9.03" height="9.03" rx="1.11"/><rect class="cls-9" x="63.49" y="123.17" width="9.03" height="9.03" rx="1.11"/><rect class="cls-9" x="75.02" y="123.17" width="9.03" height="9.03" rx="1.11"/><rect class="cls-9" x="86.55" y="123.17" width="9.03" height="9.03" rx="1.11"/><rect class="cls-9" x="98.07" y="123.17" width="9.03" height="9.03" rx="1.11"/><rect class="cls-9" x="109.6" y="123.17" width="9.03" height="9.03" rx="1.11"/><rect class="cls-9" x="121.13" y="123.17" width="9.03" height="9.03" rx="1.11"/><rect class="cls-9" x="17.37" y="135.39" width="9.03" height="9.03" rx="1.11"/><rect class="cls-9" x="28.9" y="135.39" width="9.03" height="9.03" rx="1.11"/><rect class="cls-9" x="40.43" y="135.39" width="9.03" height="9.03" rx="1.11"/><rect class="cls-9" x="51.96" y="135.39" width="9.03" height="9.03" rx="1.11"/><rect class="cls-9" x="63.49" y="135.39" width="9.03" height="9.03" rx="1.11"/><rect class="cls-9" x="75.02" y="135.39" width="9.03" height="9.03" rx="1.11"/><rect class="cls-9" x="86.55" y="135.39" width="9.03" height="9.03" rx="1.11"/><rect class="cls-9" x="98.07" y="135.39" width="9.03" height="9.03" rx="1.11"/><rect class="cls-9" x="109.6" y="135.39" width="9.03" height="9.03" rx="1.11"/><rect class="cls-9" x="5.84" y="147.61" width="9.03" height="9.03" rx="1.11"/><rect class="cls-9" x="17.37" y="147.61" width="9.03" height="9.03" rx="1.11"/><rect class="cls-9" x="28.9" y="147.61" width="9.03" height="9.03" rx="1.11"/><rect class="cls-9" x="40.43" y="147.61" width="9.03" height="9.03" rx="1.11"/><rect class="cls-9" x="51.96" y="147.61" width="9.03" height="9.03" rx="1.11"/><rect class="cls-9" x="63.49" y="147.61" width="9.03" height="9.03" rx="1.11"/><rect class="cls-9" x="75.02" y="147.61" width="9.03" height="9.03" rx="1.11"/><rect class="cls-9" x="86.55" y="147.61" width="9.03" height="9.03" rx="1.11"/><rect class="cls-9" x="98.07" y="147.61" width="9.03" height="9.03" rx="1.11"/><rect class="cls-9" x="109.6" y="147.61" width="9.03" height="9.03" rx="1.11"/><rect class="cls-9" x="121.13" y="147.61" width="9.03" height="9.03" rx="1.11"/><rect class="cls-9" x="42.5" y="147.61" width="51" height="9.03" rx="1.11"/><rect class="cls-10" x="49.94" y="160.36" width="34" height="14.34" rx="2.29"/><rect class="cls-4" x="357.71" y="33.92" width="136.01" height="136.01" rx="2.79"/><rect class="cls-2" x="363.55" y="39.76" width="124.32" height="76.5"/><line class="cls-5" x1="397.37" y1="58.2" x2="412.95" y2="58.2"/><line class="cls-6" x1="387.21" y1="58.2" x2="387.21" y2="58.2"/><line class="cls-5" x1="397.37" y1="74.79" x2="412.95" y2="74.79"/><line class="cls-6" x1="387.21" y1="74.79" x2="387.21" y2="74.79"/><line class="cls-5" x1="397.37" y1="91.39" x2="412.95" y2="91.39"/><line class="cls-6" x1="387.21" y1="91.39" x2="387.21" y2="91.39"/><line class="cls-7" x1="422.29" y1="58.2" x2="466.07" y2="58.2"/><line class="cls-7" x1="422.29" y1="66.5" x2="456.47" y2="66.5"/><line class="cls-7" x1="422.29" y1="83.09" x2="456.47" y2="83.09"/><line class="cls-7" x1="422.29" y1="99.68" x2="456.47" y2="99.68"/><line class="cls-7" x1="422.29" y1="74.79" x2="466.07" y2="74.79"/><line class="cls-7" x1="422.29" y1="91.39" x2="466.07" y2="91.39"/><path class="cls-8" d="M357.71,116.27h136a0,0,0,0,1,0,0v59.22a4,4,0,0,1-4,4h-128a4,4,0,0,1-4-4V116.27A0,0,0,0,1,357.71,116.27Z"/><rect class="cls-9" x="363.55" y="123.17" width="9.03" height="9.03" rx="1.11"/><rect class="cls-9" x="375.08" y="123.17" width="9.03" height="9.03" rx="1.11"/><rect class="cls-9" x="386.61" y="123.17" width="9.03" height="9.03" rx="1.11"/><rect class="cls-9" x="398.14" y="123.17" width="9.03" height="9.03" rx="1.11"/><rect class="cls-9" x="409.67" y="123.17" width="9.03" height="9.03" rx="1.11"/><rect class="cls-9" x="421.2" y="123.17" width="9.03" height="9.03" rx="1.11"/><rect class="cls-9" x="432.72" y="123.17" width="9.03" height="9.03" rx="1.11"/><rect class="cls-9" x="444.25" y="123.17" width="9.03" height="9.03" rx="1.11"/><rect class="cls-9" x="455.78" y="123.17" width="9.03" height="9.03" rx="1.11"/><rect class="cls-9" x="467.31" y="123.17" width="9.03" height="9.03" rx="1.11"/><rect class="cls-9" x="478.84" y="123.17" width="9.03" height="9.03" rx="1.11"/><rect class="cls-9" x="375.08" y="135.39" width="9.03" height="9.03" rx="1.11"/><rect class="cls-9" x="386.61" y="135.39" width="9.03" height="9.03" rx="1.11"/><rect class="cls-9" x="398.14" y="135.39" width="9.03" height="9.03" rx="1.11"/><rect class="cls-9" x="409.67" y="135.39" width="9.03" height="9.03" rx="1.11"/><rect class="cls-9" x="421.2" y="135.39" width="9.03" height="9.03" rx="1.11"/><rect class="cls-9" x="432.72" y="135.39" width="9.03" height="9.03" rx="1.11"/><rect class="cls-9" x="444.25" y="135.39" width="9.03" height="9.03" rx="1.11"/><rect class="cls-9" x="455.78" y="135.39" width="9.03" height="9.03" rx="1.11"/><rect class="cls-9" x="467.31" y="135.39" width="9.03" height="9.03" rx="1.11"/><rect class="cls-9" x="363.55" y="147.61" width="9.03" height="9.03" rx="1.11"/><rect class="cls-9" x="375.08" y="147.61" width="9.03" height="9.03" rx="1.11"/><rect class="cls-9" x="386.61" y="147.61" width="9.03" height="9.03" rx="1.11"/><rect class="cls-9" x="398.14" y="147.61" width="9.03" height="9.03" rx="1.11"/><rect class="cls-9" x="409.67" y="147.61" width="9.03" height="9.03" rx="1.11"/><rect class="cls-9" x="421.2" y="147.61" width="9.03" height="9.03" rx="1.11"/><rect class="cls-9" x="432.72" y="147.61" width="9.03" height="9.03" rx="1.11"/><rect class="cls-9" x="444.25" y="147.61" width="9.03" height="9.03" rx="1.11"/><rect class="cls-9" x="455.78" y="147.61" width="9.03" height="9.03" rx="1.11"/><rect class="cls-9" x="467.31" y="147.61" width="9.03" height="9.03" rx="1.11"/><rect class="cls-9" x="478.84" y="147.61" width="9.03" height="9.03" rx="1.11"/><rect class="cls-9" x="400.21" y="147.61" width="51" height="9.03" rx="1.11"/><rect class="cls-10" x="407.65" y="160.36" width="34" height="14.34" rx="2.29"/><path class="cls-3" d="M227.05,59.46a1.65,1.65,0,0,0-.58.22,1.73,1.73,0,0,0-.63.66,2.3,2.3,0,0,0-.16.43.84.84,0,0,0,0,.1,2.73,2.73,0,0,0-.07.63,2.58,2.58,0,0,0,0,.67s0,0,0,.06a.15.15,0,0,0,0,.06.44.44,0,0,0,0,.1,2,2,0,0,0,.1.32,3.37,3.37,0,0,0,.32.72,5.72,5.72,0,0,1,.27.55l.09.19a1,1,0,0,1,0,.12.08.08,0,0,0,0,0,1.28,1.28,0,0,1,.08.2,1.41,1.41,0,0,1,.1.87.25.25,0,0,1,0,.07s-.27,0-.6,0c-.9,0-2.3,0-2.71,0l-.25,0a2.79,2.79,0,0,0-.53.11,2.4,2.4,0,0,0-.86,1,1.56,1.56,0,0,0-.07.17.34.34,0,0,1,0,.08.85.85,0,0,0,0,.31,1.57,1.57,0,0,0,.22.36c.26.35.29.4.27.53s0,.09,0,.12a2.59,2.59,0,0,1-.17.33c-.11.18-.21.36-.23.4s0,0,0,0a.43.43,0,0,0,0,.05s0,0,0,0,0,0,0,.07,0,.07,0,.07,0,0,0,0,.1.2.29.41.34.42.33.57a1.32,1.32,0,0,1,0,.23.89.89,0,0,1-.05.13l0,.06a.93.93,0,0,0-.05.14c0,.06-.05.12-.06.14a1,1,0,0,0-.09.35.41.41,0,0,0,.05.21,1.9,1.9,0,0,0,.43.52,1.41,1.41,0,0,1,.37.45,2.1,2.1,0,0,1,0,.41c0,.45,0,.46.17.7a4.07,4.07,0,0,0,.41.42,2.35,2.35,0,0,0,.53.37,1.12,1.12,0,0,0,.24.08l.1,0,.12,0,.15,0a11.69,11.69,0,0,0,1.45.06c1,0,1.85,0,2.87-.12l.24,0,.42-.06.16,0,.12,0,.13,0,.22,0,.34-.07.13,0,.23,0,.22,0,.25,0,.22,0,.42-.08.32-.06h.17V67.62h-.2a.76.76,0,0,1-.39-.08,2.33,2.33,0,0,1-.73-.7c-.06-.08-.28-.43-.32-.5a.35.35,0,0,1-.05-.08.88.88,0,0,0-.07-.12s-.05-.1-.08-.14l-.32-.66s0-.09-.06-.13l-.09-.2c0-.06,0-.12,0-.13s0,0,0,0l0-.07,0-.1,0-.11a.33.33,0,0,0,0-.06v0s0,0-.08-.19l-.05-.12a1.64,1.64,0,0,0-.16-.28,3.76,3.76,0,0,0-.6-.57l-.09-.07a2.44,2.44,0,0,1-.82-1.11s0-.09,0-.1a3.26,3.26,0,0,1-.14-.48,10.36,10.36,0,0,1-.21-1.28,2.28,2.28,0,0,0,0-.27,2.28,2.28,0,0,1,0-.26l0-.16a.26.26,0,0,0-.15-.12l-.08,0A2.37,2.37,0,0,0,227.05,59.46Z"/><path class="cls-3" d="M233.55,67.32a.57.57,0,0,0-.36.18.58.58,0,0,0-.15.25c0,.07,0,6,0,6.1a.64.64,0,0,0,.41.41,6.74,6.74,0,0,0,1.08,0c1.12,0,1.05,0,1.2-.07a.74.74,0,0,0,.3-.37c0-.06,0-6,0-6.08a.67.67,0,0,0-.31-.37.48.48,0,0,0-.18-.06C235.43,67.31,233.67,67.3,233.55,67.32Z"/><path class="cls-3" d="M246.1,122.13l-.07,0a.27.27,0,0,0-.15.12.51.51,0,0,0,0,.16c0,.07,0,.19,0,.26a2.45,2.45,0,0,1,0,.27,10.53,10.53,0,0,1-.2,1.29l-.14.48a.26.26,0,0,0,0,.09,2.46,2.46,0,0,1-.82,1.12l-.08.06a3.77,3.77,0,0,0-.6.57,1.5,1.5,0,0,0-.17.28s0,.09,0,.12a1,1,0,0,0-.08.19,0,0,0,0,1,0,0,.3.3,0,0,0,0,.06l0,.1-.05.11a.41.41,0,0,0,0,.07,0,0,0,0,1,0,0,1.33,1.33,0,0,0-.06.14c0,.06-.06.15-.08.19a.84.84,0,0,0-.06.14c0,.09-.28.57-.33.65l-.08.15a.52.52,0,0,1-.07.11l0,.09-.32.49a2.39,2.39,0,0,1-.74.71.88.88,0,0,1-.38.07h-.2v6.2h0l.07,0h.07l.31.06.42.08.22,0,.26,0,.21,0,.23,0,.13,0,.34.06.23,0,.12,0,.13,0,.15,0a2.8,2.8,0,0,0,.42.06l.24,0c1,.09,1.87.12,2.88.12a11.49,11.49,0,0,0,1.44-.06l.15,0,.13,0,.1,0a.79.79,0,0,0,.23-.09,2.92,2.92,0,0,0,.54-.36,3.24,3.24,0,0,0,.4-.43c.17-.23.17-.24.17-.7a3.35,3.35,0,0,1,0-.4,1.78,1.78,0,0,1,.37-.46,1.92,1.92,0,0,0,.43-.51.43.43,0,0,0,0-.21.94.94,0,0,0-.09-.36l0-.14c0-.06-.05-.12-.06-.13l0-.07a1,1,0,0,0,0-.12,1.57,1.57,0,0,1,0-.23c0-.16,0-.23.33-.57a1.17,1.17,0,0,0,.28-.41,0,0,0,0,1,0,0,.13.13,0,0,0,0-.08.12.12,0,0,0,0-.07.1.1,0,0,1,0,0,.06.06,0,0,0,0,0l0,0a2.59,2.59,0,0,0-.22-.4,2.26,2.26,0,0,1-.18-.34,1,1,0,0,1,0-.12c0-.12,0-.18.26-.52a2.23,2.23,0,0,0,.23-.37.81.81,0,0,0,0-.3.19.19,0,0,1,0-.08l-.08-.18a2.18,2.18,0,0,0-.86-1,1.71,1.71,0,0,0-.53-.11l-.25,0c-.4,0-1.8,0-2.71,0h-.6a.44.44,0,0,0,0-.08,1.39,1.39,0,0,1,.1-.86c0-.11.07-.17.08-.21a0,0,0,0,0,0,0,1,1,0,0,1,.06-.13,1.05,1.05,0,0,1,.08-.18l.27-.56a5.13,5.13,0,0,0,.33-.71,1.87,1.87,0,0,0,.09-.32.81.81,0,0,1,0-.11s0,0,0-.06,0,0,0-.05a2.77,2.77,0,0,0,0-.67,2.8,2.8,0,0,0-.06-.63.62.62,0,0,1,0-.1,1.69,1.69,0,0,0-.79-1.1,1.65,1.65,0,0,0-.57-.21A1.6,1.6,0,0,0,246.1,122.13Z"/><path class="cls-3" d="M238,130a.49.49,0,0,0-.19.07.64.64,0,0,0-.3.36c0,.06,0,6,0,6.09a.65.65,0,0,0,.29.36c.16.08.09.08,1.2.08a6.74,6.74,0,0,0,1.08,0,.67.67,0,0,0,.42-.42c0-.07,0-6,0-6.09a.87.87,0,0,0-.16-.26A.58.58,0,0,0,240,130C239.85,130,238.08,130,238,130Z"/><path class="cls-3" d="M239.57,3.64,237.17,6v6.83l2.41,2.42L242,17.71h6.82l2.42-2.42,2.42-2.42V6.06l-2.42-2.41-2.42-2.42H242Zm10.79.88,2.08,2.07v5.77l-2.07,2.06-2.07,2.07h-5.77l-2.07-2.06-2.07-2.07V6.59l2.07-2.07,2.07-2.07h5.77Z"/><path class="cls-3" d="M241.07,5.13l-1.82,1.81V12l1.82,1.82,1.81,1.81h5.06l1.82-1.82L251.57,12V6.94l-1.81-1.81-1.82-1.82h-5.06Zm4.24-.08a.46.46,0,0,1,.14.16c.08.11.08.21.08,1.9a7.15,7.15,0,0,0,.06,1.83c.07.07.08.07.18,0s.07-.1.07-1.47c0-1.56,0-1.61.22-1.78a.49.49,0,0,1,.7.16,12.87,12.87,0,0,1,.06,1.73c0,1.51,0,1.65.09,1.69a.12.12,0,0,0,.14,0c.06,0,.07-.15.09-1.06a4.53,4.53,0,0,1,.07-1.1.51.51,0,0,1,.71-.11c.2.17.21.27.19,2a13,13,0,0,1-.31,3.28c-.23,1.1-.54,1.5-1.24,1.6a11.69,11.69,0,0,1-2.05,0,1.53,1.53,0,0,1-.86-.45,40.37,40.37,0,0,1-2-4.18.56.56,0,0,1,.84-.51c.16.1.18.14.52.88l.28.62h.15a1.91,1.91,0,0,1,1.53.93,1.8,1.8,0,0,1-.1,1.88c-.15.22-.17.3-.06.36s.29-.1.43-.4a2.07,2.07,0,0,0,.24-1A2.11,2.11,0,0,0,243.68,10c-.13,0-.15,0-.26-.28l-.13-.26V7.72c0-1.91,0-1.91.24-2a.49.49,0,0,1,.65.17,6.32,6.32,0,0,1,.06,1.56c0,1.28,0,1.44.06,1.51s.16.09.23,0a7.68,7.68,0,0,0,.06-1.85V5.28l.1-.12A.49.49,0,0,1,245.31,5.05Z"/><path class="cls-3" d="M257.86,61.66l-2.4,2.4V70.9l2.4,2.42,2.41,2.42h6.82l2.42-2.43,2.42-2.42v-6.8l-2.42-2.41-2.42-2.42h-6.83Zm10.79.88,2.07,2.07v5.77l-2.07,2.07-2.07,2.07h-5.77l-2.07-2.07-2.07-2.07V64.61l2.07-2.06,2.07-2.08h5.77Z"/><path class="cls-3" d="M259.35,63.15,257.54,65V70l1.81,1.81,1.81,1.82h5.07L268,71.84,269.85,70V65L268,63.15l-1.81-1.81h-5.07Zm4.24-.08a.57.57,0,0,1,.14.16c.08.12.08.21.08,1.9s0,1.78.07,1.83.07.08.17,0,.08-.1.08-1.48c0-1.55,0-1.61.21-1.77a.48.48,0,0,1,.7.16,11.33,11.33,0,0,1,.07,1.73c0,1.51,0,1.65.08,1.69a.12.12,0,0,0,.14,0c.06,0,.08-.15.09-1.06a6.25,6.25,0,0,1,.07-1.1.51.51,0,0,1,.71-.11c.21.17.21.27.19,2a12.38,12.38,0,0,1-.31,3.27c-.23,1.1-.54,1.51-1.24,1.61a14,14,0,0,1-2,0,1.63,1.63,0,0,1-.86-.45A41.36,41.36,0,0,1,260,67.34a.56.56,0,0,1,.84-.51c.16.1.18.13.52.87l.29.62h.14a1.92,1.92,0,0,1,1.53.94,1.78,1.78,0,0,1-.1,1.87c-.15.23-.16.31-.06.37s.29-.11.44-.41a2,2,0,0,0,.23-1A2.09,2.09,0,0,0,262,68c-.13,0-.15,0-.26-.28l-.12-.26V65.74c0-1.91,0-1.91.23-2a.49.49,0,0,1,.65.18,6.12,6.12,0,0,1,.06,1.55c0,1.29,0,1.45.06,1.52s.16.09.23,0a7.83,7.83,0,0,0,.06-1.86V63.31l.1-.12A.5.5,0,0,1,263.59,63.07Z"/></svg>